# Tiled2Unity generated file. Do not modify by hand.
# Wavefront file for 'Arena-with-no-escape_mesh_0002.obj'

# Vertices (Count = 400)
v -11 -4 0
v -12 -4 0
v -12 -3 0
v -11 -3 0
v -10 -4 0
v -11 -4 0
v -11 -3 0
v -10 -3 0
v -9 -4 0
v -10 -4 0
v -10 -3 0
v -9 -3 0
v -8 -4 0
v -9 -4 0
v -9 -3 0
v -8 -3 0
v -11 -5 0
v -12 -5 0
v -12 -4 0
v -11 -4 0
v -10 -5 0
v -11 -5 0
v -11 -4 0
v -10 -4 0
v -9 -5 0
v -10 -5 0
v -10 -4 0
v -9 -4 0
v -8 -5 0
v -9 -5 0
v -9 -4 0
v -8 -4 0
v -16 -6 0
v -17 -6 0
v -17 -5 0
v -16 -5 0
v -15 -6 0
v -16 -6 0
v -16 -5 0
v -15 -5 0
v -14 -6 0
v -15 -6 0
v -15 -5 0
v -14 -5 0
v -13 -6 0
v -14 -6 0
v -14 -5 0
v -13 -5 0
v -12 -6 0
v -13 -6 0
v -13 -5 0
v -12 -5 0
v -11 -6 0
v -12 -6 0
v -12 -5 0
v -11 -5 0
v -10 -6 0
v -11 -6 0
v -11 -5 0
v -10 -5 0
v -9 -6 0
v -10 -6 0
v -10 -5 0
v -9 -5 0
v -8 -6 0
v -9 -6 0
v -9 -5 0
v -8 -5 0
v -7 -6 0
v -8 -6 0
v -8 -5 0
v -7 -5 0
v -6 -6 0
v -7 -6 0
v -7 -5 0
v -6 -5 0
v -5 -6 0
v -6 -6 0
v -6 -5 0
v -5 -5 0
v -4 -6 0
v -5 -6 0
v -5 -5 0
v -4 -5 0
v -3 -6 0
v -4 -6 0
v -4 -5 0
v -3 -5 0
v -16 -7 0
v -17 -7 0
v -17 -6 0
v -16 -6 0
v -3 -7 0
v -4 -7 0
v -4 -6 0
v -3 -6 0
v -16 -8 0
v -17 -8 0
v -17 -7 0
v -16 -7 0
v -3 -8 0
v -4 -8 0
v -4 -7 0
v -3 -7 0
v -16 -9 0
v -17 -9 0
v -17 -8 0
v -16 -8 0
v -3 -9 0
v -4 -9 0
v -4 -8 0
v -3 -8 0
v -16 -10 0
v -17 -10 0
v -17 -9 0
v -16 -9 0
v -3 -10 0
v -4 -10 0
v -4 -9 0
v -3 -9 0
v -16 -11 0
v -17 -11 0
v -17 -10 0
v -16 -10 0
v -3 -11 0
v -4 -11 0
v -4 -10 0
v -3 -10 0
v -16 -12 0
v -17 -12 0
v -17 -11 0
v -16 -11 0
v -3 -12 0
v -4 -12 0
v -4 -11 0
v -3 -11 0
v -16 -13 0
v -17 -13 0
v -17 -12 0
v -16 -12 0
v -3 -13 0
v -4 -13 0
v -4 -12 0
v -3 -12 0
v -16 -14 0
v -17 -14 0
v -17 -13 0
v -16 -13 0
v -3 -14 0
v -4 -14 0
v -4 -13 0
v -3 -13 0
v -16 -15 0
v -17 -15 0
v -17 -14 0
v -16 -14 0
v -3 -15 0
v -4 -15 0
v -4 -14 0
v -3 -14 0
v -16 -16 0
v -17 -16 0
v -17 -15 0
v -16 -15 0
v -3 -16 0
v -4 -16 0
v -4 -15 0
v -3 -15 0
v -16 -17 0
v -17 -17 0
v -17 -16 0
v -16 -16 0
v -3 -17 0
v -4 -17 0
v -4 -16 0
v -3 -16 0
v -16 -18 0
v -17 -18 0
v -17 -17 0
v -16 -17 0
v -15 -18 0
v -16 -18 0
v -16 -17 0
v -15 -17 0
v -14 -18 0
v -15 -18 0
v -15 -17 0
v -14 -17 0
v -13 -18 0
v -14 -18 0
v -14 -17 0
v -13 -17 0
v -12 -18 0
v -13 -18 0
v -13 -17 0
v -12 -17 0
v -11 -18 0
v -12 -18 0
v -12 -17 0
v -11 -17 0
v -10 -18 0
v -11 -18 0
v -11 -17 0
v -10 -17 0
v -9 -18 0
v -10 -18 0
v -10 -17 0
v -9 -17 0
v -8 -18 0
v -9 -18 0
v -9 -17 0
v -8 -17 0
v -7 -18 0
v -8 -18 0
v -8 -17 0
v -7 -17 0
v -6 -18 0
v -7 -18 0
v -7 -17 0
v -6 -17 0
v -5 -18 0
v -6 -18 0
v -6 -17 0
v -5 -17 0
v -4 -18 0
v -5 -18 0
v -5 -17 0
v -4 -17 0
v -3 -18 0
v -4 -18 0
v -4 -17 0
v -3 -17 0
v -16 -19 0
v -17 -19 0
v -17 -18 0
v -16 -18 0
v -15 -19 0
v -16 -19 0
v -16 -18 0
v -15 -18 0
v -14 -19 0
v -15 -19 0
v -15 -18 0
v -14 -18 0
v -13 -19 0
v -14 -19 0
v -14 -18 0
v -13 -18 0
v -12 -19 0
v -13 -19 0
v -13 -18 0
v -12 -18 0
v -11 -19 0
v -12 -19 0
v -12 -18 0
v -11 -18 0
v -10 -19 0
v -11 -19 0
v -11 -18 0
v -10 -18 0
v -9 -19 0
v -10 -19 0
v -10 -18 0
v -9 -18 0
v -8 -19 0
v -9 -19 0
v -9 -18 0
v -8 -18 0
v -7 -19 0
v -8 -19 0
v -8 -18 0
v -7 -18 0
v -6 -19 0
v -7 -19 0
v -7 -18 0
v -6 -18 0
v -5 -19 0
v -6 -19 0
v -6 -18 0
v -5 -18 0
v -4 -19 0
v -5 -19 0
v -5 -18 0
v -4 -18 0
v -3 -19 0
v -4 -19 0
v -4 -18 0
v -3 -18 0
v -16 -20 0
v -17 -20 0
v -17 -19 0
v -16 -19 0
v -15 -20 0
v -16 -20 0
v -16 -19 0
v -15 -19 0
v -14 -20 0
v -15 -20 0
v -15 -19 0
v -14 -19 0
v -13 -20 0
v -14 -20 0
v -14 -19 0
v -13 -19 0
v -12 -20 0
v -13 -20 0
v -13 -19 0
v -12 -19 0
v -11 -20 0
v -12 -20 0
v -12 -19 0
v -11 -19 0
v -10 -20 0
v -11 -20 0
v -11 -19 0
v -10 -19 0
v -9 -20 0
v -10 -20 0
v -10 -19 0
v -9 -19 0
v -8 -20 0
v -9 -20 0
v -9 -19 0
v -8 -19 0
v -7 -20 0
v -8 -20 0
v -8 -19 0
v -7 -19 0
v -6 -20 0
v -7 -20 0
v -7 -19 0
v -6 -19 0
v -5 -20 0
v -6 -20 0
v -6 -19 0
v -5 -19 0
v -4 -20 0
v -5 -20 0
v -5 -19 0
v -4 -19 0
v -3 -20 0
v -4 -20 0
v -4 -19 0
v -3 -19 0
v -16 -21 0
v -17 -21 0
v -17 -20 0
v -16 -20 0
v -15 -21 0
v -16 -21 0
v -16 -20 0
v -15 -20 0
v -14 -21 0
v -15 -21 0
v -15 -20 0
v -14 -20 0
v -13 -21 0
v -14 -21 0
v -14 -20 0
v -13 -20 0
v -12 -21 0
v -13 -21 0
v -13 -20 0
v -12 -20 0
v -11 -21 0
v -12 -21 0
v -12 -20 0
v -11 -20 0
v -10 -21 0
v -11 -21 0
v -11 -20 0
v -10 -20 0
v -9 -21 0
v -10 -21 0
v -10 -20 0
v -9 -20 0
v -8 -21 0
v -9 -21 0
v -9 -20 0
v -8 -20 0
v -7 -21 0
v -8 -21 0
v -8 -20 0
v -7 -20 0
v -6 -21 0
v -7 -21 0
v -7 -20 0
v -6 -20 0
v -5 -21 0
v -6 -21 0
v -6 -20 0
v -5 -20 0
v -4 -21 0
v -5 -21 0
v -5 -20 0
v -4 -20 0
v -3 -21 0
v -4 -21 0
v -4 -20 0
v -3 -20 0

# Texture cooridinates (Count = 46)
vt 0.325 0.1111111
vt 0.35 0.1111111
vt 0.35 0.1388889
vt 0.325 0.1388889
vt 0.3 0.1111111
vt 0.3 0.1388889
vt 0.275 0.1111111
vt 0.275 0.1388889
vt 0.25 0.1111111
vt 0.25 0.1388889
vt 0.325 0.08333331
vt 0.35 0.08333331
vt 0.3 0.08333331
vt 0.275 0.08333331
vt 0.25 0.08333331
vt 0.6 0.9722222
vt 0.625 0.9722222
vt 0.625 1
vt 0.6 1
vt 0.575 0.9722222
vt 0.575 1
vt 0.3 0.05555558
vt 0.325 0.05555558
vt 0.275 0.05555558
vt 0.55 0.9722222
vt 0.55 1
vt 0.6 0.9444444
vt 0.625 0.9444444
vt 0.55 0.9444444
vt 0.575 0.9444444
vt 0.6 0.9166667
vt 0.625 0.9166667
vt 0.55 0.9166667
vt 0.575 0.9166667
vt 0.6 0.8888889
vt 0.625 0.8888889
vt 0.575 0.8888889
vt 0.55 0.8888889
vt 0.6 0.8611111
vt 0.625 0.8611111
vt 0.575 0.8611111
vt 0.55 0.8611111
vt 0.6 0.8333333
vt 0.625 0.8333333
vt 0.575 0.8333333
vt 0.55 0.8333333

# Normal
vn 0 0 -1

# Mesh description
g Arena-with-no-escape_mesh_0002

# Faces
f 1/1/1 2/2/1 3/3/1 4/4/1
f 5/5/1 6/1/1 7/4/1 8/6/1
f 9/7/1 10/5/1 11/6/1 12/8/1
f 13/9/1 14/7/1 15/8/1 16/10/1
f 17/11/1 18/12/1 19/2/1 20/1/1
f 21/13/1 22/11/1 23/1/1 24/5/1
f 25/14/1 26/13/1 27/5/1 28/7/1
f 29/15/1 30/14/1 31/7/1 32/9/1
f 33/16/1 34/17/1 35/18/1 36/19/1
f 37/20/1 38/16/1 39/19/1 40/21/1
f 41/20/1 42/16/1 43/19/1 44/21/1
f 45/20/1 46/16/1 47/19/1 48/21/1
f 49/20/1 50/16/1 51/19/1 52/21/1
f 53/20/1 54/16/1 55/19/1 56/21/1
f 57/22/1 58/23/1 59/11/1 60/13/1
f 61/24/1 62/22/1 63/13/1 64/14/1
f 65/20/1 66/16/1 67/19/1 68/21/1
f 69/20/1 70/16/1 71/19/1 72/21/1
f 73/20/1 74/16/1 75/19/1 76/21/1
f 77/20/1 78/16/1 79/19/1 80/21/1
f 81/20/1 82/16/1 83/19/1 84/21/1
f 85/25/1 86/20/1 87/21/1 88/26/1
f 89/27/1 90/28/1 91/17/1 92/16/1
f 93/29/1 94/30/1 95/20/1 96/25/1
f 97/27/1 98/28/1 99/17/1 100/16/1
f 101/29/1 102/30/1 103/20/1 104/25/1
f 105/27/1 106/28/1 107/17/1 108/16/1
f 109/29/1 110/30/1 111/20/1 112/25/1
f 113/27/1 114/28/1 115/17/1 116/16/1
f 117/29/1 118/30/1 119/20/1 120/25/1
f 121/27/1 122/28/1 123/17/1 124/16/1
f 125/29/1 126/30/1 127/20/1 128/25/1
f 129/27/1 130/28/1 131/17/1 132/16/1
f 133/29/1 134/30/1 135/20/1 136/25/1
f 137/27/1 138/28/1 139/17/1 140/16/1
f 141/29/1 142/30/1 143/20/1 144/25/1
f 145/27/1 146/28/1 147/17/1 148/16/1
f 149/29/1 150/30/1 151/20/1 152/25/1
f 153/27/1 154/28/1 155/17/1 156/16/1
f 157/29/1 158/30/1 159/20/1 160/25/1
f 161/27/1 162/28/1 163/17/1 164/16/1
f 165/29/1 166/30/1 167/20/1 168/25/1
f 169/31/1 170/32/1 171/28/1 172/27/1
f 173/33/1 174/34/1 175/30/1 176/29/1
f 177/35/1 178/36/1 179/32/1 180/31/1
f 181/37/1 182/35/1 183/31/1 184/34/1
f 185/37/1 186/35/1 187/31/1 188/34/1
f 189/37/1 190/35/1 191/31/1 192/34/1
f 193/37/1 194/35/1 195/31/1 196/34/1
f 197/37/1 198/35/1 199/31/1 200/34/1
f 201/37/1 202/35/1 203/31/1 204/34/1
f 205/37/1 206/35/1 207/31/1 208/34/1
f 209/37/1 210/35/1 211/31/1 212/34/1
f 213/37/1 214/35/1 215/31/1 216/34/1
f 217/37/1 218/35/1 219/31/1 220/34/1
f 221/37/1 222/35/1 223/31/1 224/34/1
f 225/37/1 226/35/1 227/31/1 228/34/1
f 229/38/1 230/37/1 231/34/1 232/33/1
f 233/39/1 234/40/1 235/36/1 236/35/1
f 237/41/1 238/39/1 239/35/1 240/37/1
f 241/41/1 242/39/1 243/35/1 244/37/1
f 245/41/1 246/39/1 247/35/1 248/37/1
f 249/41/1 250/39/1 251/35/1 252/37/1
f 253/41/1 254/39/1 255/35/1 256/37/1
f 257/41/1 258/39/1 259/35/1 260/37/1
f 261/41/1 262/39/1 263/35/1 264/37/1
f 265/41/1 266/39/1 267/35/1 268/37/1
f 269/41/1 270/39/1 271/35/1 272/37/1
f 273/41/1 274/39/1 275/35/1 276/37/1
f 277/41/1 278/39/1 279/35/1 280/37/1
f 281/41/1 282/39/1 283/35/1 284/37/1
f 285/42/1 286/41/1 287/37/1 288/38/1
f 289/39/1 290/40/1 291/36/1 292/35/1
f 293/41/1 294/39/1 295/35/1 296/37/1
f 297/41/1 298/39/1 299/35/1 300/37/1
f 301/41/1 302/39/1 303/35/1 304/37/1
f 305/41/1 306/39/1 307/35/1 308/37/1
f 309/41/1 310/39/1 311/35/1 312/37/1
f 313/41/1 314/39/1 315/35/1 316/37/1
f 317/41/1 318/39/1 319/35/1 320/37/1
f 321/41/1 322/39/1 323/35/1 324/37/1
f 325/41/1 326/39/1 327/35/1 328/37/1
f 329/41/1 330/39/1 331/35/1 332/37/1
f 333/41/1 334/39/1 335/35/1 336/37/1
f 337/41/1 338/39/1 339/35/1 340/37/1
f 341/42/1 342/41/1 343/37/1 344/38/1
f 345/43/1 346/44/1 347/40/1 348/39/1
f 349/45/1 350/43/1 351/39/1 352/41/1
f 353/45/1 354/43/1 355/39/1 356/41/1
f 357/45/1 358/43/1 359/39/1 360/41/1
f 361/45/1 362/43/1 363/39/1 364/41/1
f 365/45/1 366/43/1 367/39/1 368/41/1
f 369/45/1 370/43/1 371/39/1 372/41/1
f 373/45/1 374/43/1 375/39/1 376/41/1
f 377/45/1 378/43/1 379/39/1 380/41/1
f 381/45/1 382/43/1 383/39/1 384/41/1
f 385/45/1 386/43/1 387/39/1 388/41/1
f 389/45/1 390/43/1 391/39/1 392/41/1
f 393/45/1 394/43/1 395/39/1 396/41/1
f 397/46/1 398/45/1 399/41/1 400/42/1

